<svg width="662.7349853515625px" height="441.4400146484375px" xmlns="http://www.w3.org/2000/svg" viewBox="-81.36749267578125 -145.72000732421876 662.7349853515625 441.4400146484375" style="background: rgba(0, 0, 0, 0);" preserveAspectRatio="xMidYMid"><defs><filter id="editing-raise" x="-100%" y="-100%" width="300%" height="300%"><feFlood flood-color="#128da4" result="flood-surface"></feFlood><feFlood flood-color="#000000" result="flood-extrude"></feFlood><feMorphology operator="erode" in="SourceAlpha" radius="1" result="erode"></feMorphology><feConvolveMatrix in="erode" result="shadow" order="11,8" divisor="1" kernelMatrix="0 0 0 1 1 1 1 1 0 0 0 0 0 1 0 0 0 0 0 1 0 0 0 0 1 0 0 0 0 0 1 0 0 0 0 1 0 0 0 0 0 1 0 0 0 0 1 0 0 0 0 0 1 0 0 0 0 0 1 0 0 0 1 0 0 0 0 0 0 1 1 0 1 1 0 0 0 0 0 0 0 0 1 0 0 0 0 0"></feConvolveMatrix><feOffset dx="0" dy="4" in="shadow" result="offset"></feOffset><feGaussianBlur in="offset" stdDeviation="0.2" result="blur"></feGaussianBlur><feComposite operator="in" in="flood-extrude" in2="blur" result="extrude"></feComposite><feMorphology operator="erode" in="SourceAlpha" radius="1" result="erode2"></feMorphology><feConvolveMatrix in="erode2" result="out" order="4,4" divisor="1" kernelMatrix="0 1 1 0 1 0 0 1 1 0 0 1 0 1 1 0 "></feConvolveMatrix><feComposite operator="in" in="flood-surface" in2="out" result="text"></feComposite><feMerge><feMergeNode in="extrude"></feMergeNode><feMergeNode in="text"></feMergeNode></feMerge></filter></defs><g filter="url(#editing-raise)"><g transform="translate(7.200021743774414, 148.4000015258789)"><path d="M21.60-12.20L21.60-12.20L21.60-131L21.60-131Q21.60-136.80 16.60-138.80L16.60-138.80L16.60-138.80Q21-145 27.50-145L27.50-145L27.50-145Q34-145 38.30-141.80L38.30-141.80L38.30-141.80Q42.60-138.60 47-131.60L47-131.60L115.60-23.20L115.60-131L115.60-131Q115.60-136.60 110.60-138.80L110.60-138.80L110.60-138.80Q114.60-145 121.20-145L121.20-145L121.20-145Q132.40-145 132.40-131.20L132.40-131.20L132.40-12.40L132.40-12.40Q132.40-6.80 137-4.20L137-4.20L137-4.20Q133.20 1.80 126.80 1.80L126.80 1.80L126.80 1.80Q120.40 1.80 115.50-2.20L115.50-2.20L115.50-2.20Q110.60-6.20 104.80-15L104.80-15L38.20-118.20L38.20-12.40L38.20-12.40Q38.20-6.80 43.20-4.60L43.20-4.60L43.20-4.60Q39.20 1.80 32.80 1.80L32.80 1.80L32.80 1.80Q21.60 1.80 21.60-12.20ZM328.80-1.60L328.80-1.60L328.80-1.60Q324.20 1.60 319.30 1.60L319.30 1.60L319.30 1.60Q314.40 1.60 311.80-1.50L311.80-1.50L311.80-1.50Q309.20-4.60 308.40-12L308.40-12L300.80-120.60L255.40-7.20L255.40-7.20Q253.40-1.80 247.90-1.90L247.90-1.90L247.90-1.90Q242.40-2 240.60-7.20L240.60-7.20L196.40-120.80L189.00-12.60L189.00-12.60Q187.80 1.80 178.40 1.80L178.40 1.80L178.40 1.80Q173.60 1.80 169.00-2.40L169.00-2.40L169.00-2.40Q171.80-4.80 172.60-13L172.60-13L181.40-130.20L181.40-130.20Q181.40-131 181.40-131.80L181.40-131.80L181.40-131.80Q181.40-137.60 178.60-141L178.60-141L178.60-141Q184.80-145 191.20-145L191.20-145L191.20-145Q204.00-145 209.80-128.60L209.80-128.60L248.80-29.40L289.40-128.40L289.40-128.40Q295.20-145 309-145L309-145L309-145Q314.40-145 320.20-141.60L320.20-141.60L320.20-141.60Q317.20-138.60 317.20-132.40L317.20-132.40L317.20-132.40Q317.20-131.60 317.20-130.80L317.20-130.80L325.80-13.20L325.80-13.20Q326.20-4.40 328.80-1.60ZM410.60-116.20L384.80-46L433.00-46L410.60-116.20ZM469.00-3.40L469.00-3.40L469.00-3.40Q465.80 1.80 459.70 1.80L459.70 1.80L459.70 1.80Q453.60 1.80 450.60-0.80L450.60-0.80L450.60-0.80Q447.60-3.40 445.40-10.20L445.40-10.20L437.20-33.80L380.20-33.80L371.80-12L371.80-12Q366.60 1.80 358.60 1.80L358.60 1.80L358.60 1.80Q351.80 1.80 349.20-5L349.20-5L349.20-5Q353.80-6.80 356.40-14.40L356.40-14.40L403.40-133L403.40-133Q401.20-138.40 398.40-141L398.40-141L398.40-141Q403.00-145 407.90-145L407.90-145L407.90-145Q412.80-145 415.50-142L415.50-142L415.50-142Q418.20-139 420.60-132.40L420.60-132.40L461.40-13.60L461.40-13.60Q464.20-5.40 469.00-3.40Z"></path></g></g><style>text {
  font-size: 64px;
  font-family: Arial Black;
  dominant-baseline: central;
  text-anchor: middle;
}</style></svg>